<mxfile host="Electron" modified="2023-04-12T17:06:18.900Z" agent="Mozilla/5.0 (Macintosh; Intel Mac OS X 10_15_7) AppleWebKit/537.36 (KHTML, like Gecko) draw.io/21.1.2 Chrome/106.0.5249.199 Electron/21.4.3 Safari/537.36" etag="9xa3-V7FhbtHcXVRBhWI" version="21.1.2" type="device">
  <diagram name="Page-1" id="N1ArhGqEewoK6WK9bdin">
    <mxGraphModel dx="1160" dy="655" grid="1" gridSize="10" guides="1" tooltips="1" connect="1" arrows="1" fold="1" page="0" pageScale="1" pageWidth="850" pageHeight="1100" math="0" shadow="0">
      <root>
        <mxCell id="0" />
        <mxCell id="1" parent="0" />
        <mxCell id="XbFwl9lCIvBUYyJVRNTL-6" style="rounded=0;orthogonalLoop=1;jettySize=auto;html=1;entryX=0;entryY=0.5;entryDx=0;entryDy=0;" edge="1" parent="1" source="XbFwl9lCIvBUYyJVRNTL-1" target="XbFwl9lCIvBUYyJVRNTL-2">
          <mxGeometry relative="1" as="geometry" />
        </mxCell>
        <mxCell id="XbFwl9lCIvBUYyJVRNTL-7" style="rounded=0;orthogonalLoop=1;jettySize=auto;html=1;" edge="1" parent="1" source="XbFwl9lCIvBUYyJVRNTL-1" target="XbFwl9lCIvBUYyJVRNTL-4">
          <mxGeometry relative="1" as="geometry" />
        </mxCell>
        <mxCell id="XbFwl9lCIvBUYyJVRNTL-1" value="n0" style="ellipse;whiteSpace=wrap;html=1;aspect=fixed;" vertex="1" parent="1">
          <mxGeometry x="170" y="240" width="40" height="40" as="geometry" />
        </mxCell>
        <mxCell id="XbFwl9lCIvBUYyJVRNTL-8" style="rounded=0;orthogonalLoop=1;jettySize=auto;html=1;" edge="1" parent="1" source="XbFwl9lCIvBUYyJVRNTL-2" target="XbFwl9lCIvBUYyJVRNTL-5">
          <mxGeometry relative="1" as="geometry" />
        </mxCell>
        <mxCell id="XbFwl9lCIvBUYyJVRNTL-9" style="rounded=0;orthogonalLoop=1;jettySize=auto;html=1;entryX=0;entryY=0.5;entryDx=0;entryDy=0;" edge="1" parent="1" source="XbFwl9lCIvBUYyJVRNTL-2" target="XbFwl9lCIvBUYyJVRNTL-3">
          <mxGeometry relative="1" as="geometry" />
        </mxCell>
        <mxCell id="XbFwl9lCIvBUYyJVRNTL-10" style="edgeStyle=orthogonalEdgeStyle;rounded=0;orthogonalLoop=1;jettySize=auto;html=1;entryX=0.5;entryY=0;entryDx=0;entryDy=0;curved=1;fillColor=#d80073;strokeColor=#A50040;" edge="1" parent="1" source="XbFwl9lCIvBUYyJVRNTL-2" target="XbFwl9lCIvBUYyJVRNTL-1">
          <mxGeometry relative="1" as="geometry">
            <Array as="points">
              <mxPoint x="420" y="150" />
              <mxPoint x="190" y="150" />
            </Array>
          </mxGeometry>
        </mxCell>
        <mxCell id="XbFwl9lCIvBUYyJVRNTL-2" value="n1" style="ellipse;whiteSpace=wrap;html=1;aspect=fixed;" vertex="1" parent="1">
          <mxGeometry x="400" y="210" width="40" height="40" as="geometry" />
        </mxCell>
        <mxCell id="XbFwl9lCIvBUYyJVRNTL-11" style="edgeStyle=orthogonalEdgeStyle;rounded=0;orthogonalLoop=1;jettySize=auto;html=1;entryX=1;entryY=0;entryDx=0;entryDy=0;curved=1;fillColor=#d80073;strokeColor=#A50040;exitX=0.5;exitY=0;exitDx=0;exitDy=0;" edge="1" parent="1" source="XbFwl9lCIvBUYyJVRNTL-3" target="XbFwl9lCIvBUYyJVRNTL-2">
          <mxGeometry relative="1" as="geometry">
            <Array as="points">
              <mxPoint x="660" y="150" />
              <mxPoint x="434" y="150" />
            </Array>
          </mxGeometry>
        </mxCell>
        <mxCell id="XbFwl9lCIvBUYyJVRNTL-3" value="n2" style="ellipse;whiteSpace=wrap;html=1;aspect=fixed;" vertex="1" parent="1">
          <mxGeometry x="640" y="200" width="40" height="40" as="geometry" />
        </mxCell>
        <mxCell id="XbFwl9lCIvBUYyJVRNTL-13" style="edgeStyle=orthogonalEdgeStyle;rounded=0;orthogonalLoop=1;jettySize=auto;html=1;entryX=0;entryY=0.5;entryDx=0;entryDy=0;curved=1;fillColor=#d80073;strokeColor=#A50040;" edge="1" parent="1" source="XbFwl9lCIvBUYyJVRNTL-4" target="XbFwl9lCIvBUYyJVRNTL-1">
          <mxGeometry relative="1" as="geometry" />
        </mxCell>
        <mxCell id="XbFwl9lCIvBUYyJVRNTL-14" style="rounded=0;orthogonalLoop=1;jettySize=auto;html=1;entryX=0;entryY=0.5;entryDx=0;entryDy=0;" edge="1" parent="1" source="XbFwl9lCIvBUYyJVRNTL-4" target="XbFwl9lCIvBUYyJVRNTL-5">
          <mxGeometry relative="1" as="geometry" />
        </mxCell>
        <mxCell id="XbFwl9lCIvBUYyJVRNTL-4" value="n3" style="ellipse;whiteSpace=wrap;html=1;aspect=fixed;" vertex="1" parent="1">
          <mxGeometry x="290" y="460" width="40" height="40" as="geometry" />
        </mxCell>
        <mxCell id="XbFwl9lCIvBUYyJVRNTL-15" style="edgeStyle=orthogonalEdgeStyle;rounded=0;orthogonalLoop=1;jettySize=auto;html=1;entryX=0.5;entryY=1;entryDx=0;entryDy=0;curved=1;fillColor=#d80073;strokeColor=#A50040;" edge="1" parent="1" source="XbFwl9lCIvBUYyJVRNTL-5" target="XbFwl9lCIvBUYyJVRNTL-2">
          <mxGeometry relative="1" as="geometry" />
        </mxCell>
        <mxCell id="XbFwl9lCIvBUYyJVRNTL-16" style="edgeStyle=orthogonalEdgeStyle;rounded=0;orthogonalLoop=1;jettySize=auto;html=1;entryX=0.5;entryY=1;entryDx=0;entryDy=0;curved=1;exitX=0.5;exitY=1;exitDx=0;exitDy=0;fillColor=#d80073;strokeColor=#A50040;" edge="1" parent="1" source="XbFwl9lCIvBUYyJVRNTL-5" target="XbFwl9lCIvBUYyJVRNTL-4">
          <mxGeometry relative="1" as="geometry">
            <Array as="points">
              <mxPoint x="540" y="400" />
              <mxPoint x="540" y="520" />
              <mxPoint x="310" y="520" />
            </Array>
          </mxGeometry>
        </mxCell>
        <mxCell id="XbFwl9lCIvBUYyJVRNTL-5" value="n4" style="ellipse;whiteSpace=wrap;html=1;aspect=fixed;" vertex="1" parent="1">
          <mxGeometry x="510" y="360" width="40" height="40" as="geometry" />
        </mxCell>
      </root>
    </mxGraphModel>
  </diagram>
</mxfile>
